HIERARCHY
ROOT Pelvis
{
	OFFSET 0.000000 0.000000 0.000000
	CHANNELS 6 Xposition Yposition Zposition Xrotation Yrotation Zrotation
	JOINT LeftUpLeg_virtual
	{
		OFFSET 0.000000 0.000000 0.000000
		CHANNELS 3 Xrotation Yrotation Zrotation
		JOINT LeftUpLeg
		{
			OFFSET 18.735201 -5.666702 -4.541200
			CHANNELS 3 Xrotation Yrotation Zrotation
			JOINT LeftLeg
			{
				OFFSET -0.021200 -31.938179 0.493100
				CHANNELS 3 Xrotation Yrotation Zrotation
				JOINT LeftFoot
				{
					OFFSET 0.021200 -31.938179 -4.336299
					CHANNELS 3 Xrotation Yrotation Zrotation
					JOINT LeftToeBase
					{
						OFFSET 0.943001 -26.722000 15.023500
						CHANNELS 3 Xrotation Yrotation Zrotation
						End Site
						{
							OFFSET 0 0 0
						}
					}
				}
			}
		}
	}
	JOINT RightUpLeg_virtual
	{
		OFFSET 0.000000 0.000000 0.000000
		CHANNELS 3 Xrotation Yrotation Zrotation
		JOINT RightUpLeg
		{
			OFFSET -18.735201 -5.666702 -4.541200
			CHANNELS 3 Xrotation Yrotation Zrotation
			JOINT RightLeg
			{
				OFFSET 0.018946 -31.938133 0.493100
				CHANNELS 3 Xrotation Yrotation Zrotation
				JOINT RightFoot
				{
					OFFSET -0.018946 -31.938126 -4.336299
					CHANNELS 3 Xrotation Yrotation Zrotation
					JOINT RightToeBase
					{
						OFFSET -0.943001 -26.722004 15.023500
						CHANNELS 3 Xrotation Yrotation Zrotation
						End Site
						{
							OFFSET 0 0 0
						}
					}
				}
			}
		}
	}
	JOINT Hips_virtual
	{
		OFFSET 0.000000 0.000000 0.000000
		CHANNELS 3 Xrotation Yrotation Zrotation
		JOINT Hips
		{
			OFFSET -0.000000 -0.000000 -0.000000
			CHANNELS 3 Xrotation Yrotation Zrotation
			JOINT Spine
			{
				OFFSET 0.000000 10.199997 -0.299500
				CHANNELS 3 Xrotation Yrotation Zrotation
				JOINT Spine1
				{
					OFFSET 0.000000 11.900002 -1.516600
					CHANNELS 3 Xrotation Yrotation Zrotation
					JOINT Spine2
					{
						OFFSET 0.000000 13.600006 -2.842500
						CHANNELS 3 Xrotation Yrotation Zrotation
						JOINT Neck_virtual
						{
							OFFSET 0.000000 0.000000 0.000000
							CHANNELS 3 Xrotation Yrotation Zrotation
							JOINT Neck
							{
								OFFSET 0.000000 9.624100 -2.890100
								CHANNELS 3 Xrotation Yrotation Zrotation
								JOINT Head
								{
									OFFSET 0.000000 14.068802 -1.351900
									CHANNELS 3 Xrotation Yrotation Zrotation
									End Site
									{
										OFFSET 0 0 0
									}
								}
							}
						}
						JOINT LeftShoulder_virtual
						{
							OFFSET 0.000000 0.000000 0.000000
							CHANNELS 3 Xrotation Yrotation Zrotation
							JOINT LeftShoulder
							{
								OFFSET 15.263000 10.923401 -0.547700
								CHANNELS 3 Xrotation Yrotation Zrotation
								JOINT LeftArm
								{
									OFFSET 25.438599 -2.830597 -13.032500
									CHANNELS 3 Xrotation Yrotation Zrotation
									JOINT LeftForeArm
									{
										OFFSET 29.960503 0.000000 0.000000
										CHANNELS 3 Xrotation Yrotation Zrotation
										JOINT LeftHand
										{
											OFFSET 27.849251 0.000000 0.000000
											CHANNELS 3 Xrotation Yrotation Zrotation
											End Site
											{
												OFFSET 0 0 0
											}
										}
									}
								}
							}
						}
						JOINT RightShoulder_virtual
						{
							OFFSET 0.000000 0.000000 0.000000
							CHANNELS 3 Xrotation Yrotation Zrotation
							JOINT RightShoulder
							{
								OFFSET -15.263000 10.923401 -0.547700
								CHANNELS 3 Xrotation Yrotation Zrotation
								JOINT RightArm
								{
									OFFSET -25.438599 -2.830597 -13.032500
									CHANNELS 3 Xrotation Yrotation Zrotation
									JOINT RightForeArm
									{
										OFFSET -29.960503 0.000000 0.000000
										CHANNELS 3 Xrotation Yrotation Zrotation
										JOINT RightHand
										{
											OFFSET -27.849251 0.000000 0.000000
											CHANNELS 3 Xrotation Yrotation Zrotation
											End Site
											{
												OFFSET 0 0 0
											}
										}
									}
								}
							}
						}
					}
				}
			}
		}
	}
}
MOTION
Frames: 11
Frame Time: 0.03333333
-2.681003 80.373810 2.552223 0.000000 0.000000 0.000000 -5.398393 -46.091063 -0.138898 -36.910916 3.269428 21.343897 62.508389 -8.152319 4.188292 -22.911135 -6.711847 -18.589816 0.000000 0.000000 0.000000 -5.398393 -46.091063 -0.138898 -20.977761 -8.980942 -32.624750 63.053820 -6.514523 -7.419386 -31.031981 -9.960295 27.205344 0.000000 0.000000 0.000000 -5.398393 -46.091063 -0.138898 0.000000 0.000003 0.000000 9.462111 7.035676 -1.694600 2.187714 0.989900 -0.915632 0.000000 0.000000 0.000000 2.202829 0.982767 -0.894152 2.650040 3.452606 -0.064175 0.000000 0.000000 0.000000 2.202829 0.982767 -0.894152 1.117177 3.546355 -8.633310 -53.487020 4.935505 -51.502994 -179.999527 -73.641952 -179.999513 0.000000 0.000000 0.000000 2.202829 0.982767 -0.894152 3.036128 13.027198 -5.371408 -48.713732 27.172835 83.457091 -179.999786 74.011657 179.999773 0.000000 0.000000 0.000000 
-2.624004 80.064629 3.004383 0.000000 0.000000 0.000000 -5.081974 -46.374495 0.098157 -37.298451 3.174650 21.116607 63.937811 -8.016298 4.088252 -23.828903 -6.193297 -18.203441 0.000000 0.000000 0.000000 -5.081974 -46.374495 0.098157 -21.391616 -8.742430 -33.241250 63.455476 -5.654513 -7.359928 -31.173403 -10.304350 27.211822 0.000000 0.000000 0.000000 -5.081974 -46.374495 0.098157 0.000000 0.000003 0.000000 9.687954 7.171071 -2.026281 2.062172 1.010601 -0.893727 0.000000 0.000000 0.000000 2.076817 1.004103 -0.874000 2.665888 3.464114 -0.004815 0.000000 0.000000 0.000000 2.076817 1.004103 -0.874000 1.112657 3.581135 -8.635984 -53.210660 4.972765 -51.357231 -179.999459 -73.632233 -179.999459 0.000000 0.000000 0.000000 2.076817 1.004103 -0.874000 3.105121 13.142795 -5.328006 -48.727437 27.290292 83.461524 -179.999390 74.086283 179.999404 0.000000 0.000000 0.000000 
-2.552719 79.673805 3.505663 0.000000 0.000000 0.000000 -4.840593 -46.752676 0.300927 -37.840228 3.033445 20.950582 65.696461 -7.822496 3.962711 -24.678571 -5.845313 -17.874130 0.000000 0.000000 0.000000 -4.840593 -46.752676 0.300927 -21.915565 -8.458260 -33.987530 64.034280 -4.603433 -7.395368 -31.387082 -10.687374 27.227571 0.000000 0.000000 0.000000 -4.840593 -46.752676 0.300927 0.000000 0.000000 0.000000 9.978215 7.302406 -2.293077 1.916818 1.031763 -0.894297 0.000000 0.000000 0.000000 1.931410 1.024994 -0.876843 2.681632 3.484027 0.051988 0.000000 0.000000 0.000000 1.931410 1.024994 -0.876843 1.110766 3.630401 -8.655380 -52.841769 5.112496 -51.141677 179.999937 -73.431965 179.999964 0.000000 0.000000 0.000000 1.931410 1.024994 -0.876843 3.169171 13.274910 -5.296752 -48.735760 27.444501 83.446183 -179.999213 74.154285 179.999240 0.000000 0.000000 0.000000 
-2.459523 79.186073 4.073856 0.000000 0.000000 0.000000 -4.725106 -47.203950 0.448480 -38.589312 2.618810 21.049093 67.841407 -7.887794 3.795945 -25.255077 -5.467934 -18.347864 0.000000 0.000000 0.000000 -4.725106 -47.203950 0.448480 -22.479778 -8.092646 -34.889276 64.797144 -3.374688 -7.530071 -31.682420 -11.125702 27.293376 0.000000 0.000000 0.000000 -4.725106 -47.203950 0.448480 0.000000 -0.000002 0.000000 10.338282 7.428784 -2.489644 1.751585 1.053342 -0.915971 0.000000 0.000000 0.000000 1.766520 1.045414 -0.901336 2.697658 3.510834 0.106780 0.000000 0.000000 0.000000 1.766520 1.045414 -0.901336 1.111787 3.693826 -8.692150 -52.361709 5.340828 -50.878311 -179.999472 -73.109539 -179.999472 0.000000 0.000000 0.000000 1.766520 1.045414 -0.901336 3.224299 13.415399 -5.279437 -48.718162 27.637148 83.417592 -179.999991 74.227696 179.999991 0.000000 0.000000 0.000000 
-2.332527 78.583595 4.730558 0.000000 0.000000 0.000000 -4.763242 -47.708376 0.523184 -39.676705 1.929074 21.284591 70.500297 -8.099110 3.629281 -25.386389 -5.255915 -19.377443 0.000000 0.000000 0.000000 -4.763242 -47.708376 0.523184 -23.044751 -7.636455 -35.979534 65.737354 -1.953279 -7.774966 -32.057616 -11.631248 27.439448 0.000000 0.000000 0.000000 -4.763242 -47.708376 0.523184 0.000000 0.000000 0.000000 10.909201 7.544375 -2.529294 1.532800 1.076088 -0.997165 0.000000 0.000000 0.000000 1.549265 1.064466 -0.986855 2.715074 3.545463 0.144784 0.000000 0.000000 0.000000 1.549265 1.064466 -0.986855 1.121901 3.790806 -8.776300 -51.604067 5.785257 -50.502897 -179.999704 -72.464790 -179.999691 0.000000 0.000000 0.000000 1.549265 1.064466 -0.986855 3.247805 13.568182 -5.304377 -48.562082 27.955841 83.361264 179.999991 74.257987 179.999991 0.000000 0.000000 0.000000 
-2.157034 77.845154 5.499613 0.000000 0.000000 0.000000 -4.959941 -48.253576 0.505491 -41.205507 0.848048 21.694839 73.662818 -8.549565 3.463413 -24.833229 -5.297026 -21.144857 0.000000 0.000000 0.000000 -4.959941 -48.253576 0.505491 -23.589914 -7.083076 -37.277858 66.838312 -0.326569 -8.136083 -32.494126 -12.211254 27.692082 0.000000 0.000000 0.000000 -4.959941 -48.253576 0.505491 0.000000 -0.000002 0.000000 11.670941 7.684188 -2.462472 1.273221 1.104485 -1.097075 0.000000 0.000000 0.000000 1.291723 1.087422 -1.092371 2.734071 3.581901 0.181759 0.000000 0.000000 0.000000 1.291723 1.087422 -1.092371 1.143914 3.872144 -8.884223 -50.743333 6.363352 -50.123873 -179.999909 -71.804795 -179.999896 0.000000 0.000000 0.000000 1.291723 1.087422 -1.092371 3.213302 13.679423 -5.375498 -48.298511 28.360865 83.321293 179.999991 74.331733 179.999991 0.000000 0.000000 0.000000 
-1.922881 76.960228 6.397388 0.000000 0.000000 0.000000 -5.296347 -48.835385 0.392553 -43.189294 -0.703998 22.317746 77.137247 -9.335289 3.275971 -23.336724 -5.737546 -23.803605 0.000000 0.000000 0.000000 -5.296347 -48.835385 0.392553 -24.106757 -6.420809 -38.788286 68.062466 1.496555 -8.608881 -32.950663 -12.865706 28.073363 0.000000 0.000000 0.000000 -5.296347 -48.835385 0.392553 0.000000 -0.000001 0.000000 12.557057 7.856093 -2.303257 0.995854 1.138758 -1.199802 0.000000 0.000000 0.000000 1.016574 1.114879 -1.201561 2.745545 3.621167 0.222865 0.000000 0.000000 0.000000 1.016574 1.114879 -1.201561 1.177510 3.931809 -9.010046 -49.846318 7.032363 -49.753628 -179.999909 -71.166965 -179.999909 0.000000 0.000000 0.000000 1.016574 1.114879 -1.201561 3.139970 13.746663 -5.470687 -48.025434 28.850518 83.319914 -179.999541 74.486095 179.999554 0.000000 0.000000 0.000000 
-1.631514 75.936066 7.427034 0.000000 0.000000 0.000000 -5.736830 -49.454770 0.196853 -45.534194 -2.704084 23.165119 80.500248 -10.467051 3.031793 -20.662644 -6.794149 -27.349490 0.000000 0.000000 0.000000 -5.736830 -49.454770 0.196853 -24.595349 -5.654125 -40.497117 69.347867 3.491479 -9.180894 -33.373633 -13.585082 28.590250 0.000000 0.000000 0.000000 -5.736830 -49.454770 0.196853 0.000000 0.000002 0.000000 13.520286 8.054677 -2.044193 0.711188 1.177412 -1.308893 0.000000 0.000000 0.000000 0.734354 1.145060 -1.317740 2.740156 3.667063 0.266432 0.000000 0.000000 0.000000 0.734354 1.145060 -1.317740 1.219938 3.992347 -9.161702 -48.866363 7.791494 -49.357696 -179.999814 -70.472758 -179.999827 0.000000 0.000000 0.000000 0.734354 1.145060 -1.317740 3.056129 13.777696 -5.564833 -47.806482 29.460300 83.382990 -179.999254 74.733130 179.999267 0.000000 0.000000 0.000000 
-1.281060 74.790131 8.612785 0.000000 0.000000 0.000000 -6.277944 -50.169307 -0.059694 -47.991750 -4.923114 24.181936 83.266139 -11.809012 2.699624 -16.793828 -8.616636 -31.506160 0.000000 0.000000 0.000000 -6.277944 -50.169307 -0.059694 -25.026611 -4.667598 -42.547355 70.612080 5.724434 -9.628430 -33.687244 -14.267088 29.187966 0.000000 0.000000 0.000000 -6.277944 -50.169307 -0.059694 0.000000 0.000001 0.000000 14.499976 8.258992 -1.700849 0.424834 1.216747 -1.428610 0.000000 0.000000 0.000000 0.450690 1.174166 -1.444913 2.708230 3.725161 0.308046 0.000000 0.000000 0.000000 0.450690 1.174166 -1.444913 1.261340 4.095660 -9.344288 -47.712204 8.648730 -48.870369 -179.999786 -69.606280 -179.999773 0.000000 0.000000 0.000000 0.450690 1.174166 -1.444913 2.992453 13.783377 -5.631409 -47.719110 30.227931 83.551334 -179.999650 75.093053 179.999636 0.000000 0.000000 0.000000 
-0.894257 73.596970 9.935541 0.000000 0.000000 0.000000 -6.769759 -51.104326 -0.305469 -50.522537 -6.862109 25.059119 86.463010 -12.683356 2.319464 -13.987982 -10.940355 -34.083406 0.000000 0.000000 0.000000 -6.769759 -51.104326 -0.305469 -25.497163 -3.351354 -44.992420 71.654743 8.292399 -9.602428 -33.743436 -14.699400 29.688653 0.000000 0.000000 0.000000 -6.769759 -51.104326 -0.305469 0.000000 -0.000002 0.000000 15.442457 8.427694 -1.324838 0.138679 1.250330 -1.559732 0.000000 0.000000 0.000000 0.167364 1.196239 -1.583493 2.640242 3.801979 0.340300 0.000000 0.000000 0.000000 0.167364 1.196239 -1.583493 1.282822 4.296606 -9.553088 -46.271960 9.652348 -48.192145 -179.999800 -68.364777 -179.999800 0.000000 0.000000 0.000000 0.167364 1.196239 -1.583493 2.963987 13.770113 -5.657466 -47.797732 31.193952 83.871035 179.999513 75.567273 -179.999541 0.000000 0.000000 0.000000 
-0.494922 72.398926 11.367765 0.000000 0.000000 0.000000 -7.156110 -52.230983 -0.501459 -52.960607 -8.628603 26.087523 89.557966 -13.369487 1.851274 -11.720715 -13.278511 -35.535767 0.000000 0.000000 0.000000 -7.156110 -52.230983 -0.501459 -26.074754 -1.915418 -47.495165 72.351347 10.973995 -9.584881 -33.451258 -15.049931 30.287272 0.000000 0.000000 0.000000 -7.156110 -52.230983 -0.501459 0.000000 0.000001 0.000000 16.307024 8.503019 -0.965432 -0.146074 1.269155 -1.694877 0.000000 0.000000 0.000000 -0.114770 1.203150 -1.725553 2.527949 3.903874 0.353189 0.000000 0.000000 0.000000 -0.114770 1.203150 -1.725553 1.258248 4.648352 -9.768069 -44.491186 10.801626 -47.244067 -179.999964 -66.706810 -179.999964 0.000000 0.000000 0.000000 -0.114770 1.203150 -1.725553 2.956451 13.734563 -5.656086 -48.042495 32.407629 84.409909 179.999295 76.127116 -179.999322 0.000000 0.000000 0.000000 
